<svg version="1.1" viewBox="0.0 0.0 1280.0 640.0" fill="none" stroke="none" stroke-linecap="square" stroke-miterlimit="10" xmlns:xlink="http://www.w3.org/1999/xlink" xmlns="http://www.w3.org/2000/svg"><clipPath id="p.0"><path d="m0 0l1280.0 0l0 640.0l-1280.0 0l0 -640.0z" clip-rule="nonzero"/></clipPath><g clip-path="url(#p.0)"><path fill="#ffffff" d="m0 0l1280.0 0l0 640.0l-1280.0 0z" fill-rule="evenodd"/><defs><linearGradient id="p.1" gradientUnits="userSpaceOnUse" gradientTransform="matrix(15.492039934971897 0.0 0.0 15.492039934971897 0.0 0.0)" spreadMethod="pad" x1="18.752679869106892" y1="12.90972730707568" x2="18.752622954347732" y2="28.401767241943027"><stop offset="0.0" stop-color="#bfbfbf"/><stop offset="1.0" stop-color="#737373"/></linearGradient></defs><path fill="url(#p.1)" d="m290.51727 440.00128l100.88022 -240.00258l89.58557 0l-100.88022 240.00258z" fill-rule="evenodd"/><defs><linearGradient id="p.2" gradientUnits="userSpaceOnUse" gradientTransform="matrix(15.49203794957079 0.0 0.0 15.49203794957079 0.0 0.0)" spreadMethod="pad" x1="27.28616998496465" y1="12.909730285136822" x2="27.28611439379742" y2="28.40176823460787"><stop offset="0.0" stop-color="#bfbfbf"/><stop offset="1.0" stop-color="#737373"/></linearGradient></defs><path fill="url(#p.2)" d="m422.71838 440.00128l100.88025 -240.00258l89.58557 0l-100.88019 240.00258z" fill-rule="evenodd"/><defs><linearGradient id="p.3" gradientUnits="userSpaceOnUse" gradientTransform="matrix(15.492083614089896 0.0 0.0 -15.492083614089896 0.0 0.0)" spreadMethod="pad" x1="24.32111956655745" y1="-12.909600904294328" x2="24.321288986758205" y2="-28.40168451745784"><stop offset="0.0" stop-color="#00d2e9"/><stop offset="1.0" stop-color="#045962"/></linearGradient></defs><path fill="url(#p.3)" d="m186.31898 199.9987l100.8802 240.00258l89.5856 0l-100.88022 -240.00258z" fill-rule="evenodd"/><defs><linearGradient id="p.4" gradientUnits="userSpaceOnUse" gradientTransform="matrix(15.492084937685158 0.0 0.0 -15.492084937685158 0.0 0.0)" spreadMethod="pad" x1="32.85458196600244" y1="-12.909599801338421" x2="32.854751386188724" y2="-28.4016847380972"><stop offset="0.0" stop-color="#00d2e9"/><stop offset="1.0" stop-color="#045962"/></linearGradient></defs><path fill="url(#p.4)" d="m318.5201 199.9987l100.88022 240.00258l89.5856 0l-100.88022 -240.00258z" fill-rule="evenodd"/><path fill="#000000" fill-opacity="0.0" d="m525.6435 216.63898l621.57477 0l0 186.70865l-621.57477 0z" fill-rule="evenodd"/><path fill="#434343" d="m772.34314 296.18143q0 0.8125 -0.21875 1.984375q-0.21875 1.15625 -0.8125 3.34375l-17.34375 58.84375q-0.375 1.234375 -0.953125 2.0q-0.578125 0.765625 -1.78125 1.203125q-1.203125 0.4375 -3.4375 0.578125q-2.21875 0.15625 -5.796875 0.15625q-3.5625 0 -5.828125 -0.1875q-2.25 -0.171875 -3.53125 -0.609375q-1.28125 -0.4375 -1.859375 -1.203125q-0.578125 -0.765625 -0.875 -1.9375l-10.9375 -39.515625l-0.140625 -0.65625l-0.15625 0.65625l-10.0625 39.515625q-0.28125 1.234375 -0.828125 2.0q-0.546875 0.765625 -1.859375 1.203125q-1.3125 0.4375 -3.578125 0.578125q-2.265625 0.15625 -5.828125 0.15625q-3.65625 0 -5.875 -0.1875q-2.21875 -0.171875 -3.5 -0.609375q-1.28125 -0.4375 -1.859375 -1.203125q-0.578125 -0.765625 -0.875 -1.9375l-17.203125 -58.84375q-0.65625 -2.109375 -0.84375 -3.3125q-0.1875 -1.203125 -0.1875 -2.015625q0 -0.71875 0.40625 -1.265625q0.40625 -0.546875 1.453125 -0.875q1.0625 -0.328125 2.84375 -0.46875q1.796875 -0.15625 4.484375 -0.15625q2.921875 0 4.734375 0.15625q1.828125 0.140625 2.84375 0.5q1.03125 0.359375 1.421875 0.984375q0.40625 0.625 0.625 1.5l12.90625 47.75l0.15625 0.875l0.140625 -0.875l12.109375 -47.75q0.21875 -0.875 0.6875 -1.5q0.46875 -0.625 1.421875 -0.984375q0.953125 -0.359375 2.65625 -0.5q1.71875 -0.15625 4.421875 -0.15625q2.6875 0 4.359375 0.1875q1.6875 0.171875 2.671875 0.5q0.984375 0.328125 1.375 0.875q0.40625 0.546875 0.625 1.28125l12.984375 48.125l0.21875 0.796875l0.140625 -0.875l12.390625 -47.75q0.15625 -0.875 0.59375 -1.5q0.4375 -0.625 1.453125 -0.984375q1.015625 -0.359375 2.765625 -0.5q1.75 -0.15625 4.453125 -0.15625q2.703125 0 4.40625 0.15625q1.71875 0.140625 2.703125 0.46875q0.984375 0.328125 1.34375 0.875q0.375 0.546875 0.375 1.265625zm72.68884 0.078125q0 0.359375 -0.03125 0.875q-0.03125 0.515625 -0.140625 1.140625q-0.109375 0.609375 -0.296875 1.421875q-0.1875 0.796875 -0.46875 1.8125l-19.546875 58.84375q-0.359375 1.234375 -0.984375 2.0q-0.625 0.765625 -2.046875 1.203125q-1.421875 0.4375 -3.859375 0.578125q-2.4375 0.15625 -6.375 0.15625q-3.875 0 -6.3125 -0.1875q-2.4375 -0.171875 -3.828125 -0.609375q-1.390625 -0.4375 -2.015625 -1.203125q-0.609375 -0.765625 -0.96875 -1.9375l-19.546875 -58.84375q-0.4375 -1.453125 -0.703125 -2.625q-0.25 -1.171875 -0.28125 -1.671875q-0.03125 -0.515625 -0.03125 -0.953125q0 -0.734375 0.390625 -1.28125q0.40625 -0.546875 1.421875 -0.90625q1.03125 -0.359375 2.8125 -0.5q1.78125 -0.15625 4.484375 -0.15625q2.984375 0 4.8125 0.1875q1.828125 0.171875 2.875 0.5q1.0625 0.328125 1.5 0.953125q0.4375 0.625 0.734375 1.5l14.796875 47.75l0.4375 1.828125l0.4375 -1.828125l14.578125 -47.75q0.21875 -0.875 0.6875 -1.5q0.484375 -0.625 1.5 -0.953125q1.03125 -0.328125 2.734375 -0.5q1.71875 -0.1875 4.484375 -0.1875q2.703125 0 4.40625 0.15625q1.71875 0.140625 2.671875 0.5q0.953125 0.359375 1.3125 0.90625q0.359375 0.546875 0.359375 1.28125zm29.169434 65.109375q0 0.734375 -0.4375 1.28125q-0.4375 0.546875 -1.5 0.921875q-1.046875 0.359375 -2.796875 0.53125q-1.75 0.1875 -4.453125 0.1875q-2.703125 0 -4.453125 -0.1875q-1.75 -0.171875 -2.8125 -0.53125q-1.046875 -0.375 -1.484375 -0.921875q-0.4375 -0.546875 -0.4375 -1.28125l0 -95.875q0 -0.734375 0.4375 -1.3125q0.4375 -0.578125 1.484375 -0.984375q1.0625 -0.40625 2.8125 -0.625q1.75 -0.21875 4.453125 -0.21875q2.703125 0 4.453125 0.21875q1.75 0.21875 2.796875 0.625q1.0625 0.40625 1.5 0.984375q0.4375 0.578125 0.4375 1.3125l0 95.875zm78.37891 -34.40625q0 3.34375 -1.5 4.953125q-1.484375 1.609375 -4.109375 1.609375l-39.59375 0q0 4.15625 0.984375 7.546875q0.984375 3.390625 3.125 5.765625q2.15625 2.359375 5.546875 3.609375q3.390625 1.234375 8.140625 1.234375q4.8125 0 8.453125 -0.6875q3.640625 -0.703125 6.296875 -1.53125q2.671875 -0.84375 4.421875 -1.53125q1.75 -0.703125 2.84375 -0.703125q0.65625 0 1.09375 0.265625q0.4375 0.25 0.71875 0.90625q0.296875 0.65625 0.40625 1.859375q0.109375 1.203125 0.109375 3.015625q0 1.609375 -0.078125 2.75q-0.0625 1.125 -0.21875 1.921875q-0.140625 0.796875 -0.4375 1.34375q-0.28125 0.546875 -0.765625 1.0625q-0.46875 0.515625 -2.578125 1.390625q-2.109375 0.875 -5.390625 1.71875q-3.28125 0.828125 -7.515625 1.4375q-4.234375 0.625 -9.046875 0.625q-8.671875 0 -15.203125 -2.1875q-6.515625 -2.1875 -10.890625 -6.625q-4.375 -4.453125 -6.53125 -11.234375q-2.15625 -6.78125 -2.15625 -15.890625q0 -8.6875 2.265625 -15.640625q2.265625 -6.96875 6.5625 -11.8125q4.296875 -4.859375 10.453125 -7.40625q6.171875 -2.546875 13.90625 -2.546875q8.15625 0 13.953125 2.40625q5.796875 2.40625 9.515625 6.671875q3.71875 4.265625 5.46875 10.09375q1.75 5.828125 1.75 12.6875l0 2.921875zm-17.78125 -5.25q0.21875 -7.734375 -3.109375 -12.140625q-3.3125 -4.421875 -10.234375 -4.421875q-3.5 0 -6.09375 1.3125q-2.59375 1.3125 -4.3125 3.546875q-1.703125 2.21875 -2.625 5.25q-0.90625 3.015625 -1.046875 6.453125l27.421875 0zm70.35681 33.25q0 3.203125 -0.40625 4.921875q-0.390625 1.703125 -1.046875 2.40625q-0.65625 0.6875 -1.9375 1.234375q-1.28125 0.546875 -3.0 0.9375q-1.703125 0.40625 -3.71875 0.625q-2.0 0.21875 -4.03125 0.21875q-5.46875 0 -9.484375 -1.390625q-4.015625 -1.375 -6.640625 -4.25q-2.625 -2.890625 -3.859375 -7.265625q-1.234375 -4.375 -1.234375 -10.34375l0 -33.328125l-7.8125 0q-1.375 0 -2.109375 -1.703125q-0.734375 -1.71875 -0.734375 -5.734375q0 -2.109375 0.1875 -3.5625q0.1875 -1.46875 0.546875 -2.296875q0.359375 -0.84375 0.90625 -1.203125q0.546875 -0.375 1.28125 -0.375l7.734375 0l0 -14.5q0 -0.734375 0.390625 -1.3125q0.40625 -0.59375 1.453125 -0.984375q1.0625 -0.40625 2.84375 -0.578125q1.796875 -0.1875 4.421875 -0.1875q2.703125 0 4.484375 0.1875q1.78125 0.171875 2.796875 0.578125q1.03125 0.390625 1.46875 0.984375q0.4375 0.578125 0.4375 1.3125l0 14.5l14.140625 0q0.734375 0 1.28125 0.375q0.546875 0.359375 0.90625 1.203125q0.375 0.828125 0.546875 2.296875q0.1875 1.453125 0.1875 3.5625q0 4.015625 -0.734375 5.734375q-0.71875 1.703125 -2.109375 1.703125l-14.21875 0l0 30.546875q0 5.328125 1.671875 8.0q1.6875 2.65625 5.984375 2.65625q1.453125 0 2.625 -0.25q1.171875 -0.265625 2.078125 -0.59375q0.90625 -0.328125 1.53125 -0.578125q0.625 -0.265625 1.125 -0.265625q0.4375 0 0.84375 0.265625q0.40625 0.25 0.625 1.015625q0.21875 0.765625 0.390625 2.078125q0.1875 1.3125 0.1875 3.359375z" fill-rule="nonzero"/></g></svg>